<?xml version="1.0" encoding="UTF-8" standalone="no"?>
<svg
   version="1.1"
   width="18"
   height="18"
   viewBox="0 0 18 18"
   xml:space="preserve"
   id="svg13"
   sodipodi:docname="about_icon.svg"
   inkscape:version="1.1 (ce6663b3b7, 2021-05-25)"
   xmlns:inkscape="http://www.inkscape.org/namespaces/inkscape"
   xmlns:sodipodi="http://sodipodi.sourceforge.net/DTD/sodipodi-0.dtd"
   xmlns="http://www.w3.org/2000/svg"
   xmlns:svg="http://www.w3.org/2000/svg"><sodipodi:namedview
   id="namedview15"
   pagecolor="#505050"
   bordercolor="#eeeeee"
   borderopacity="1"
   inkscape:pageshadow="0"
   inkscape:pageopacity="0"
   inkscape:pagecheckerboard="0"
   showgrid="false"
   width="18px"
   inkscape:zoom="1"
   inkscape:cx="67"
   inkscape:cy="95"
   inkscape:window-width="1366"
   inkscape:window-height="664"
   inkscape:window-x="0"
   inkscape:window-y="27"
   inkscape:window-maximized="1"
   inkscape:current-layer="svg13" />
<desc
   id="desc2">Created with Fabric.js 1.7.22</desc>
<defs
   id="defs4">
</defs>
<g
   id="icon"
   style="opacity:1;fill:none;fill-rule:nonzero;stroke:none;stroke-width:1;stroke-linecap:butt;stroke-linejoin:miter;stroke-miterlimit:10;stroke-dasharray:none"
   transform="scale(0.2)">
	<path
   d="M 45,90 C 20.187,90 0,69.813 0,45 0,20.187 20.187,0 45,0 69.813,0 90,20.187 90,45 90,69.813 69.813,90 45,90 Z M 45,7.347 C 24.238,7.347 7.347,24.238 7.347,45 7.347,65.762 24.238,82.653 45,82.653 65.762,82.653 82.653,65.762 82.653,45 82.653,24.238 65.762,7.347 45,7.347 Z"
   style="opacity:1;fill:#000000;fill-rule:nonzero;stroke:none;stroke-width:1;stroke-linecap:butt;stroke-linejoin:miter;stroke-miterlimit:10;stroke-dasharray:none"
   stroke-linecap="round"
   id="path6" />
	<path
   d="m 12.374,15.851 0.797,-3.03 0.578,-2.104 C 14.231,8.485 9.237,10.381 8.506,10.951 l 0.059,0.67 c 0.666,-0.468 3.186,-1.068 2.683,0.59 l -0.225,0.846 v 0 l -1.149,4.287 c -0.482,2.232 4.512,0.337 5.243,-0.234 l -0.059,-0.67 c -0.666,0.469 -3.186,1.069 -2.684,-0.589 z"
   style="opacity:1;fill:#000000;fill-rule:nonzero;stroke:none;stroke-width:1;stroke-linecap:butt;stroke-linejoin:miter;stroke-miterlimit:10;stroke-dasharray:none"
   transform="matrix(3.89,0,0,3.89,-1.9444444,-1.9444444)"
   stroke-linecap="round"
   id="path8" />
	<circle
   cx="13.295"
   cy="7.2750001"
   r="1.545"
   style="opacity:1;fill:#000000;fill-rule:nonzero;stroke:none;stroke-width:1;stroke-linecap:butt;stroke-linejoin:miter;stroke-miterlimit:10;stroke-dasharray:none"
   transform="matrix(3.89,0,0,3.89,-1.9444444,-1.9444444)"
   id="circle10" />
</g>
</svg>
