<?xml version="1.0" encoding="UTF-8" standalone="no"?>
<svg
   version="1.1"
   width="30"
   height="30"
   viewBox="0 0 30 30"
   xml:space="preserve"
   id="svg21"
   sodipodi:docname="box_icon.svg"
   inkscape:version="1.1 (ce6663b3b7, 2021-05-25)"
   xmlns:inkscape="http://www.inkscape.org/namespaces/inkscape"
   xmlns:sodipodi="http://sodipodi.sourceforge.net/DTD/sodipodi-0.dtd"
   xmlns="http://www.w3.org/2000/svg"
   xmlns:svg="http://www.w3.org/2000/svg"><sodipodi:namedview
   id="namedview23"
   pagecolor="#505050"
   bordercolor="#eeeeee"
   borderopacity="1"
   inkscape:pageshadow="0"
   inkscape:pageopacity="0"
   inkscape:pagecheckerboard="0"
   showgrid="false"
   inkscape:zoom="20.891429"
   inkscape:cx="10.387035"
   inkscape:cy="5.4089167"
   inkscape:window-width="1366"
   inkscape:window-height="664"
   inkscape:window-x="0"
   inkscape:window-y="27"
   inkscape:window-maximized="1"
   inkscape:current-layer="svg21" />
<desc
   id="desc2">Created with Fabric.js 1.7.22</desc>
<defs
   id="defs4">
</defs>
<g
   id="icon"
   style="opacity:1;fill:none;fill-rule:nonzero;stroke:none;stroke-width:1;stroke-linecap:butt;stroke-linejoin:miter;stroke-miterlimit:10;stroke-dasharray:none"
   transform="matrix(0.33333333,0,0,0.33333333,1.5e-7,-1.2485e-4)">
	<path
   d="m 40.051,84.916 c -0.232,0 -0.464,-0.04 -0.688,-0.122 L 1.312,70.858 C 0.524,70.57 0,69.819 0,68.98 V 20.748 c 0,-0.653 0.319,-1.265 0.854,-1.64 0.536,-0.374 1.22,-0.464 1.833,-0.238 l 38.051,13.935 c 0.788,0.289 1.312,1.039 1.312,1.878 v 48.233 c 0,0.653 -0.319,1.266 -0.854,1.64 -0.34,0.237 -0.74,0.36 -1.145,0.36 z M 4,67.583 38.051,80.054 V 36.081 L 4,23.61 Z"
   style="opacity:1;fill:#000000;fill-rule:nonzero;stroke:none;stroke-width:1;stroke-linecap:butt;stroke-linejoin:miter;stroke-miterlimit:10;stroke-dasharray:none"
   stroke-linecap="round"
   id="path6" />
	<path
   d="m 40.051,84.916 c -0.404,0 -0.805,-0.123 -1.146,-0.36 -0.536,-0.374 -0.854,-0.986 -0.854,-1.64 V 34.683 c 0,-1.104 0.896,-2 2,-2 1.104,0 2,0.896 2,2 v 45.371 l 7.339,-2.688 c 1.034,-0.381 2.186,0.152 2.565,1.19 0.38,1.037 -0.153,2.186 -1.19,2.565 l -10.027,3.672 c -0.222,0.083 -0.455,0.123 -0.687,0.123 z"
   style="opacity:1;fill:#000000;fill-rule:nonzero;stroke:none;stroke-width:1;stroke-linecap:butt;stroke-linejoin:miter;stroke-miterlimit:10;stroke-dasharray:none"
   stroke-linecap="round"
   id="path8" />
	<path
   d="m 78.103,44.279 c -1.104,0 -2,-0.896 -2,-2 V 23.61 L 40.739,36.561 c -1.037,0.38 -2.186,-0.153 -2.566,-1.19 -0.38,-1.038 0.153,-2.186 1.19,-2.566 L 77.415,18.87 c 0.611,-0.227 1.297,-0.136 1.833,0.238 0.535,0.375 0.854,0.986 0.854,1.64 v 21.531 c 10e-4,1.104 -0.895,2 -1.999,2 z"
   style="opacity:1;fill:#000000;fill-rule:nonzero;stroke:none;stroke-width:1;stroke-linecap:butt;stroke-linejoin:miter;stroke-miterlimit:10;stroke-dasharray:none"
   stroke-linecap="round"
   id="path10" />
	<path
   d="m 40.051,36.683 c -0.233,0 -0.466,-0.041 -0.688,-0.122 L 1.312,22.626 C 0.524,22.337 0,21.587 0,20.748 0,19.909 0.524,19.159 1.312,18.87 L 39.364,4.936 c 0.443,-0.163 0.932,-0.163 1.375,0 L 78.79,18.87 c 0.788,0.289 1.313,1.039 1.313,1.878 0,0.839 -0.524,1.589 -1.313,1.878 L 40.739,36.561 c -0.222,0.082 -0.455,0.122 -0.688,0.122 z M 7.816,20.748 40.051,32.553 72.286,20.748 40.051,8.943 Z"
   style="opacity:1;fill:#000000;fill-rule:nonzero;stroke:none;stroke-width:1;stroke-linecap:butt;stroke-linejoin:miter;stroke-miterlimit:10;stroke-dasharray:none"
   stroke-linecap="round"
   id="path12" />
	<path
   d="m 20.064,42.452 c -1.104,0 -2,-0.896 -2,-2 V 27.364 c 0,-0.843 0.529,-1.596 1.322,-1.881 L 57.742,11.659 c 1.036,-0.377 2.185,0.164 2.56,1.203 0.374,1.039 -0.165,2.185 -1.204,2.56 L 22.064,28.769 v 11.683 c 0,1.104 -0.895,2 -2,2 z"
   style="opacity:1;fill:#000000;fill-rule:nonzero;stroke:none;stroke-width:1;stroke-linecap:butt;stroke-linejoin:miter;stroke-miterlimit:10;stroke-dasharray:none"
   stroke-linecap="round"
   id="path14" />
	<path
   d="m 66.608,73.149 c -0.53,0 -1.039,-0.211 -1.414,-0.586 l -6.236,-6.236 c -0.781,-0.781 -0.781,-2.047 0,-2.828 0.781,-0.781 2.047,-0.781 2.828,0 l 4.822,4.822 11.058,-11.059 c 0.781,-0.781 2.047,-0.781 2.828,0 0.781,0.781 0.781,2.047 0,2.828 L 68.022,72.563 c -0.375,0.375 -0.883,0.586 -1.414,0.586 z"
   style="opacity:1;fill:#000000;fill-rule:nonzero;stroke:none;stroke-width:1;stroke-linecap:butt;stroke-linejoin:miter;stroke-miterlimit:10;stroke-dasharray:none"
   stroke-linecap="round"
   id="path16" />
	<path
   d="m 69.727,85.187 c -11.18,0 -20.274,-9.095 -20.274,-20.273 0,-11.18 9.095,-20.274 20.274,-20.274 C 80.905,44.639 90,53.733 90,64.913 90,76.092 80.905,85.187 69.727,85.187 Z m 0,-36.548 c -8.974,0 -16.274,7.301 -16.274,16.274 0,8.973 7.301,16.273 16.274,16.273 C 78.7,81.186 86,73.887 86,64.913 86,55.939 78.7,48.639 69.727,48.639 Z"
   style="opacity:1;fill:#000000;fill-rule:nonzero;stroke:none;stroke-width:1;stroke-linecap:butt;stroke-linejoin:miter;stroke-miterlimit:10;stroke-dasharray:none"
   stroke-linecap="round"
   id="path18" />
</g>
</svg>
