<?xml version="1.0" encoding="UTF-8" standalone="no"?>
<svg
   version="1.1"
   width="30"
   height="30"
   viewBox="0 0 30 30"
   xml:space="preserve"
   id="svg13"
   sodipodi:docname="sell_icon.svg"
   inkscape:version="1.1 (ce6663b3b7, 2021-05-25)"
   xmlns:inkscape="http://www.inkscape.org/namespaces/inkscape"
   xmlns:sodipodi="http://sodipodi.sourceforge.net/DTD/sodipodi-0.dtd"
   xmlns="http://www.w3.org/2000/svg"
   xmlns:svg="http://www.w3.org/2000/svg"><sodipodi:namedview
   id="namedview15"
   pagecolor="#505050"
   bordercolor="#eeeeee"
   borderopacity="1"
   inkscape:pageshadow="0"
   inkscape:pageopacity="0"
   inkscape:pagecheckerboard="0"
   showgrid="false"
   width="18px"
   inkscape:zoom="1.3057143"
   inkscape:cx="175.38293"
   inkscape:cy="114.11378"
   inkscape:window-width="1366"
   inkscape:window-height="664"
   inkscape:window-x="0"
   inkscape:window-y="27"
   inkscape:window-maximized="1"
   inkscape:current-layer="svg13" />
<desc
   id="desc2">Created with Fabric.js 1.7.22</desc>
<defs
   id="defs4">
</defs>
<g
   id="icon"
   style="opacity:1;fill:none;fill-rule:nonzero;stroke:none;stroke-width:1;stroke-linecap:butt;stroke-linejoin:miter;stroke-miterlimit:10;stroke-dasharray:none"
   transform="matrix(0.33333302,0,0,0.33333302,0,1.41e-5)">
	<path
   d="M 89.138,21.425 C 88.314,20.322 87.051,19.689 85.674,19.689 H 17.129 L 16.243,16.276 C 15.539,13.563 13.09,11.669 10.287,11.669 H 1 c -0.552,0 -1,0.448 -1,1 0,0.552 0.448,1 1,1 h 9.287 c 1.892,0 3.545,1.279 4.021,3.11 l 11.165,42.995 c 0.114,0.441 0.512,0.749 0.968,0.749 h 52.201 c 0.553,0 1,-0.447 1,-1 0,-0.553 -0.447,-1 -1,-1 H 27.214 l -2.398,-9.232 h 53.3 c 2.704,0 5.128,-1.812 5.894,-4.404 l 5.809,-19.649 c 0.391,-1.32 0.142,-2.71 -0.681,-3.813 z m -1.237,3.246 -5.809,19.649 c -0.518,1.75 -2.152,2.972 -3.977,2.972 H 24.297 L 17.648,21.69 h 68.025 c 0.74,0 1.418,0.34 1.861,0.933 0.443,0.592 0.577,1.338 0.367,2.048 z"
   style="opacity:1;fill:#000000;fill-rule:nonzero;stroke:none;stroke-width:1;stroke-linecap:butt;stroke-linejoin:miter;stroke-miterlimit:10;stroke-dasharray:none"
   stroke-linecap="round"
   id="path6" />
	<path
   d="m 35.47,78.331 c -3.762,0 -6.822,-3.061 -6.822,-6.822 0,-3.761 3.061,-6.822 6.822,-6.822 3.762,0 6.823,3.061 6.823,6.822 0,3.761 -3.061,6.822 -6.823,6.822 z m 0,-11.645 c -2.659,0 -4.822,2.163 -4.822,4.822 0,2.659 2.163,4.822 4.822,4.822 2.659,0 4.823,-2.163 4.823,-4.822 0,-2.659 -2.164,-4.822 -4.823,-4.822 z"
   style="opacity:1;fill:#000000;fill-rule:nonzero;stroke:none;stroke-width:1;stroke-linecap:butt;stroke-linejoin:miter;stroke-miterlimit:10;stroke-dasharray:none"
   stroke-linecap="round"
   id="path8" />
	<path
   d="m 68.27,78.331 c -3.762,0 -6.822,-3.061 -6.822,-6.822 0,-3.761 3.061,-6.822 6.822,-6.822 3.763,0 6.823,3.061 6.823,6.822 0,3.761 -3.061,6.822 -6.823,6.822 z m 0,-11.645 c -2.659,0 -4.822,2.163 -4.822,4.822 0,2.659 2.163,4.822 4.822,4.822 2.659,0 4.823,-2.163 4.823,-4.822 0,-2.659 -2.164,-4.822 -4.823,-4.822 z"
   style="opacity:1;fill:#000000;fill-rule:nonzero;stroke:none;stroke-width:1;stroke-linecap:butt;stroke-linejoin:miter;stroke-miterlimit:10;stroke-dasharray:none"
   stroke-linecap="round"
   id="path10" />
</g>
</svg>
