<?xml version="1.0" encoding="UTF-8" standalone="no"?>
<svg
   id="Capa_1"
   enable-background="new 0 0 512 512"
   height="32"
   viewBox="0 0 32 32"
   width="32"
   version="1.1"
   sodipodi:docname="stock_list_icon.svg"
   inkscape:version="1.1 (c68e22c387, 2021-05-23)"
   xmlns:inkscape="http://www.inkscape.org/namespaces/inkscape"
   xmlns:sodipodi="http://sodipodi.sourceforge.net/DTD/sodipodi-0.dtd"
   xmlns="http://www.w3.org/2000/svg"
   xmlns:svg="http://www.w3.org/2000/svg">
  <defs
     id="defs21" />
  <sodipodi:namedview
     id="namedview19"
     pagecolor="#505050"
     bordercolor="#eeeeee"
     borderopacity="1"
     inkscape:pageshadow="0"
     inkscape:pageopacity="0"
     inkscape:pagecheckerboard="0"
     showgrid="false"
     width="32px"
     inkscape:zoom="1.625"
     inkscape:cx="193.53846"
     inkscape:cy="157.84615"
     inkscape:window-width="1920"
     inkscape:window-height="1017"
     inkscape:window-x="-8"
     inkscape:window-y="-8"
     inkscape:window-maximized="1"
     inkscape:current-layer="Capa_1" />
  <g
     id="g16"
     transform="scale(0.0625)">
    <path
       d="m 322.967,182.394 c -5.857,-5.857 -15.355,-5.857 -21.213,0 -5.857,5.857 -5.857,15.355 0,21.213 l 21.213,21.213 c 2.929,2.929 6.768,4.394 10.606,4.394 3.838,0 7.678,-1.465 10.606,-4.394 l 42.426,-42.426 c 5.858,-5.857 5.858,-15.355 0,-21.213 -5.857,-5.859 -15.354,-5.857 -21.213,0 L 333.574,193 Z"
       id="path2" />
    <path
       d="M 365.394,237.181 333.574,269 322.967,258.394 c -5.857,-5.857 -15.355,-5.857 -21.213,0 -5.857,5.857 -5.857,15.355 0,21.213 l 21.213,21.213 c 2.929,2.929 6.768,4.394 10.606,4.394 3.838,0 7.678,-1.465 10.606,-4.394 l 42.426,-42.426 c 5.858,-5.857 5.858,-15.355 0,-21.213 -5.856,-5.86 -15.353,-5.858 -21.211,0 z"
       id="path4" />
    <path
       d="M 256,178 H 136 c -8.284,0 -15,6.716 -15,15 0,8.284 6.716,15 15,15 h 120 c 8.284,0 15,-6.716 15,-15 0,-8.284 -6.716,-15 -15,-15 z"
       id="path6" />
    <path
       d="M 256,254 H 136 c -8.284,0 -15,6.716 -15,15 0,8.284 6.716,15 15,15 h 120 c 8.284,0 15,-6.716 15,-15 0,-8.284 -6.716,-15 -15,-15 z"
       id="path8" />
    <path
       d="M 256,330 H 136 c -8.284,0 -15,6.716 -15,15 0,8.284 6.716,15 15,15 h 120 c 8.284,0 15,-6.716 15,-15 0,-8.284 -6.716,-15 -15,-15 z"
       id="path10" />
    <path
       d="M 256,406 H 136 c -8.284,0 -15,6.716 -15,15 0,8.284 6.716,15 15,15 h 120 c 8.284,0 15,-6.716 15,-15 0,-8.284 -6.716,-15 -15,-15 z"
       id="path12" />
    <path
       d="M 436,60 H 350.695 C 345.042,48.008 332.919,40 319.058,40 h -13.846 l 5.341,-21.362 c 1.12,-4.48 0.113,-9.229 -2.729,-12.869 C 304.98,2.128 300.619,0 296,0 h -80 c -4.619,0 -8.98,2.128 -11.823,5.769 -2.842,3.641 -3.849,8.389 -2.729,12.869 L 206.789,40 h -13.846 c -13.86,0 -25.984,8.008 -31.637,20 H 76 c -8.284,0 -15,6.716 -15,15 v 422 c 0,8.284 6.716,15 15,15 h 360 c 8.284,0 15,-6.716 15,-15 V 75 c 0,-8.284 -6.716,-15 -15,-15 z M 192.942,70 H 226 c 4.619,0 8.98,-2.128 11.823,-5.769 2.842,-3.641 3.849,-8.389 2.729,-12.869 L 235.211,30 h 41.577 l -5.341,21.362 c -1.12,4.48 -0.113,9.229 2.729,12.869 C 277.02,67.872 281.381,70 286,70 h 33.058 c 2.454,0 4.528,1.757 4.932,4.178 L 328.293,100 H 183.707 l 4.304,-25.822 C 188.414,71.757 190.488,70 192.942,70 Z M 421,482 H 91 V 90 h 63.96 l -3.756,22.534 c -0.725,4.349 0.5,8.797 3.351,12.161 2.851,3.364 7.036,5.305 11.445,5.305 h 180 c 4.409,0 8.595,-1.94 11.445,-5.305 2.85,-3.365 4.076,-7.813 3.351,-12.161 L 357.04,90 H 421 Z"
       id="path14" />
  </g>
</svg>
