<?xml version="1.0" encoding="UTF-8" standalone="no"?>
<svg
   viewBox="0 0 32 32"
   version="1.1"
   id="svg4"
   sodipodi:docname="stock_add_icon.svg"
   width="32"
   height="32"
   inkscape:version="1.1 (c68e22c387, 2021-05-23)"
   xmlns:inkscape="http://www.inkscape.org/namespaces/inkscape"
   xmlns:sodipodi="http://sodipodi.sourceforge.net/DTD/sodipodi-0.dtd"
   xmlns="http://www.w3.org/2000/svg"
   xmlns:svg="http://www.w3.org/2000/svg">
  <defs
     id="defs8" />
  <sodipodi:namedview
     id="namedview6"
     pagecolor="#505050"
     bordercolor="#eeeeee"
     borderopacity="1"
     inkscape:pageshadow="0"
     inkscape:pageopacity="0"
     inkscape:pagecheckerboard="0"
     showgrid="false"
     width="32px"
     inkscape:zoom="6.5"
     inkscape:cx="61.461539"
     inkscape:cy="56.846154"
     inkscape:window-width="1920"
     inkscape:window-height="1017"
     inkscape:window-x="-8"
     inkscape:window-y="-8"
     inkscape:window-maximized="1"
     inkscape:current-layer="svg4" />
  <path
     d="m 31.111111,17.777778 h -4.444444 v 5.333333 l -1.777778,-1.183333 -1.777778,1.183333 v -5.333333 h -4.444444 c -0.488889,0 -0.888889,0.4 -0.888889,0.888889 v 10.666667 c 0,0.488888 0.4,0.888888 0.888889,0.888888 H 31.111111 C 31.6,30.222222 32,29.822222 32,29.333334 V 18.666667 c 0,-0.488889 -0.4,-0.888889 -0.888889,-0.888889 z M 9.7777778,14.222222 H 22.222222 c 0.488889,0 0.888889,-0.4 0.888889,-0.888888 V 2.6666669 c 0,-0.4888889 -0.4,-0.8888889 -0.888889,-0.8888889 H 17.777778 V 7.1111113 L 16,5.927778 14.222222,7.1111113 V 1.777778 H 9.7777778 c -0.4888889,0 -0.8888889,0.4 -0.8888889,0.8888889 V 13.333334 c 0,0.488888 0.4,0.888888 0.8888889,0.888888 z m 3.5555552,3.555556 H 8.8888889 v 5.333333 L 7.1111111,21.927778 5.3333333,23.111111 V 17.777778 H 0.88888889 C 0.4,17.777778 0,18.177778 0,18.666667 v 10.666667 c 0,0.488888 0.4,0.888888 0.88888889,0.888888 H 13.333333 c 0.488889,0 0.888889,-0.4 0.888889,-0.888888 V 18.666667 c 0,-0.488889 -0.4,-0.888889 -0.888889,-0.888889 z"
     id="path2"
     style="stroke-width:0.0555556" />
</svg>
